<?xml version="1.0" encoding="UTF-8"?>
<svg width="120px" height="21px" viewBox="0 0 120 21" version="1.1" xmlns="http://www.w3.org/2000/svg"
>
    <!-- Generator: Sketch 45.2 (43514) - http://www.bohemiancoding.com/sketch -->
    <title>logo</title>
    <desc>Created with Sketch.</desc>
    <defs></defs>
    <g id="Page-1" stroke="none" stroke-width="1" fill="none" fill-rule="evenodd">
        <g id="startseite-copy-7" transform="translate(-639.000000, -60.000000)" fill="#1D1D1B">
            <g id="logo" transform="translate(639.000000, 60.000000)">
                <path d="M9.64175209,12.0597062 C9.64175209,14.6275524 8.527493,16.0719659 6.00335507,16.0719659 C5.1164958,16.0719659 3.97949673,15.9344027 3.25181733,15.7509852 L3.25181733,20.244716 L0.068219944,20.6803328 L0.068219944,4.97520201 L2.56961789,4.97520201 L2.91071761,5.84643554 C3.661137,5.36496438 5.04827586,4.74593002 6.23075489,4.74593002 C8.4137931,4.74593002 9.64175209,6.09863472 9.64175209,8.75818971 L9.64175209,12.0597062 Z M3.27455731,13.0226486 C3.82031686,13.1602118 4.63895619,13.2977749 5.32115563,13.2977749 C6.16253494,13.2977749 6.48089468,12.7933766 6.48089468,12.0597062 L6.48089468,8.7811169 C6.48089468,8.02451936 6.16253494,7.5430482 5.32115563,7.5430482 C4.59347623,7.5430482 3.75209692,7.97866497 3.27455731,8.39135454 L3.27455731,13.0226486 Z"
                      id="Shape"></path>
                <path d="M10.983411,11.6699439 L10.983411,9.14795208 C10.983411,6.92401385 12.0294501,4.74593002 15.849767,4.74593002 C19.6700839,4.74593002 20.716123,6.90108665 20.716123,9.14795208 L20.716123,11.6699439 C20.716123,13.8938821 19.6700839,16.0719659 15.849767,16.0719659 C12.0294501,16.0719659 10.983411,13.9168093 10.983411,11.6699439 Z M17.5325256,11.7616527 L17.5325256,9.05624328 C17.5325256,8.02451936 17.009506,7.45133941 15.849767,7.45133941 C14.6900279,7.45133941 14.1670084,8.02451936 14.1670084,9.05624328 L14.1670084,11.7616527 C14.1670084,12.7933766 14.6900279,13.3665565 15.849767,13.3665565 C17.009506,13.3665565 17.5325256,12.7933766 17.5325256,11.7616527 Z"
                      id="Shape"></path>
                <path d="M22.0350419,11.6699439 L22.0350419,9.14795208 C22.0350419,6.92401385 23.0810811,4.74593002 26.9013979,4.74593002 C30.7217148,4.74593002 31.7677539,6.90108665 31.7677539,9.14795208 L31.7677539,11.6699439 C31.7677539,13.8938821 30.7217148,16.0719659 26.9013979,16.0719659 C23.0810811,16.0719659 22.0350419,13.9168093 22.0350419,11.6699439 Z M28.5841565,11.7616527 L28.5841565,9.05624328 C28.5841565,8.02451936 28.061137,7.45133941 26.9013979,7.45133941 C25.7416589,7.45133941 25.2186393,8.02451936 25.2186393,9.05624328 L25.2186393,11.7616527 C25.2186393,12.7933766 25.7416589,13.3665565 26.9013979,13.3665565 C28.061137,13.3665565 28.5841565,12.7933766 28.5841565,11.7616527 Z"
                      id="Shape"></path>
                <polygon id="Shape"
                         points="33.6551724 15.8426939 33.6551724 0.550252756 36.8387698 0.114635991 36.8387698 15.8656211 33.6551724 15.8656211"></polygon>
                <path d="M39.2719478,3.62249731 L39.2719478,0.206344784 L42.4555452,0.206344784 L42.4555452,3.62249731 L39.2719478,3.62249731 L39.2719478,3.62249731 Z M39.2719478,15.8426939 L39.2719478,4.97520201 L42.4555452,4.97520201 L42.4555452,15.8426939 L39.2719478,15.8426939 Z"
                      id="Shape"></path>
                <path d="M47.526561,11.5553079 L47.526561,11.8762887 C47.526561,13.1143574 48.0041006,13.4582653 49.4821994,13.4582653 C50.4827586,13.4582653 51.8016775,13.2748477 52.7567567,12.9997214 L53.2115563,15.4070772 C52.2337371,15.7739124 50.6646784,16.0948931 49.1638397,16.0948931 C45.6618825,16.0948931 44.3429636,14.3524261 44.3429636,11.6699439 L44.3429636,9.12502488 C44.3429636,6.78645066 45.3890028,4.76885722 48.9591798,4.76885722 C52.5520969,4.76885722 53.3252562,6.90108665 53.3252562,9.28551526 L53.3252562,11.5553079 L47.526561,11.5553079 Z M50.3235787,8.66648091 C50.3235787,7.90988337 50.0961789,7.29084902 49.0046598,7.29084902 C47.9131407,7.29084902 47.549301,7.90988337 47.549301,8.66648091 L47.549301,9.12502488 L50.3463187,9.12502488 L50.3463187,8.66648091 L50.3235787,8.66648091 Z"
                      id="Shape"></path>
                <path d="M58.5554519,16.0719659 C57.3729729,16.0719659 55.6902143,15.7739124 54.6441752,15.4300044 L55.1444547,13.0455758 C56.031314,13.3207021 57.1910531,13.5270469 58.3962721,13.5270469 C59.3513513,13.5270469 59.5105312,13.2519206 59.5105312,12.609959 C59.5105312,11.9221431 59.4877912,11.8304343 57.7595526,11.3948175 C55.1444547,10.7528559 54.894315,10.0421128 54.894315,8.00159217 C54.894315,5.70887235 55.7811742,4.74593002 59.0102516,4.74593002 C59.8288909,4.74593002 61.3297297,4.86056602 62.2848089,5.1127652 L61.9891891,7.6118298 C61.0341099,7.42841221 59.8743709,7.29084902 59.0329916,7.29084902 C58.1006523,7.29084902 57.8732525,7.5430482 57.8732525,8.02451936 C57.8732525,8.68940811 57.9642124,8.7811169 59.2376514,9.07917048 C62.3075489,9.76698643 62.5349487,10.4318752 62.5349487,12.609959 C62.5804286,14.8568244 61.6480894,16.0719659 58.5554519,16.0719659 Z"
                      id="Shape"></path>
                <path d="M67.9470642,16.0719659 C65.9004659,16.0719659 64.6952469,15.2924412 64.6952469,13.2748477 L64.6952469,7.5659754 L63.2398881,7.5659754 L63.2398881,4.97520201 L64.6952469,4.97520201 L64.6952469,2.36150141 L67.8788443,1.92588465 L67.8788443,4.97520201 L70.3347623,4.97520201 L70.1528424,7.5659754 L67.8788443,7.5659754 L67.8788443,12.839231 C67.8788443,13.2748477 68.1517241,13.4353381 68.5383038,13.4353381 C68.9021435,13.4353381 69.402423,13.3894837 69.8572227,13.2289934 L70.2438024,15.6592764 C69.5388629,15.9114755 68.6747436,16.0719659 67.9470642,16.0719659 Z"
                      id="Shape"></path>
                <path d="M75.3830381,4.9981292 L75.3830381,12.1743422 C75.3830381,12.6558134 75.610438,12.953867 76.1561975,12.953867 C76.724697,12.953867 77.7934762,12.5411774 78.4756756,12.1743422 L78.4756756,4.9981292 L81.659273,4.9981292 L81.659273,15.8656211 L79.2943149,15.8656211 L78.9532152,15.040242 C77.6342963,15.6822036 75.9060577,16.0948931 74.6553587,16.0948931 C72.8134202,16.0948931 72.1767008,14.7192612 72.1767008,12.609959 L72.1767008,4.9981292 L75.3830381,4.9981292 Z"
                      id="Shape"></path>
                <path d="M83.5466914,8.7811169 C83.5466914,6.21327071 84.6609505,4.76885722 87.1850885,4.76885722 C88.0719477,4.76885722 89.2089468,4.90642041 89.9366262,5.089838 L89.9366262,0.550252756 L93.1202236,0.114635991 L93.1202236,15.8656211 L90.6188256,15.8656211 L90.2777259,14.9943876 C89.5273065,15.4758588 88.1401677,16.0948931 86.9576886,16.0948931 C84.7746504,16.0948931 83.5466914,14.7421884 83.5466914,12.0826334 L83.5466914,8.7811169 Z M89.9138862,7.81817458 C89.3681267,7.68061139 88.5494873,7.5430482 87.8672879,7.5430482 C87.0259086,7.5430482 86.7075488,8.04744656 86.7075488,8.7811169 L86.7075488,12.0597062 C86.7075488,12.8163038 87.0259086,13.2977749 87.8672879,13.2977749 C88.5949673,13.2977749 89.4363466,12.8621582 89.9138862,12.4494686 L89.9138862,7.81817458 Z"
                      id="Shape"></path>
                <path d="M95.098602,3.62249731 L95.098602,0.206344784 L98.2821993,0.206344784 L98.2821993,3.62249731 L95.098602,3.62249731 L95.098602,3.62249731 Z M95.098602,15.8426939 L95.098602,4.97520201 L98.2821993,4.97520201 L98.2821993,15.8426939 L95.098602,15.8426939 Z"
                      id="Shape"></path>
                <path d="M100.169618,11.6699439 L100.169618,9.14795208 C100.169618,6.92401385 101.215657,4.74593002 105.035974,4.74593002 C108.856291,4.74593002 109.90233,6.90108665 109.90233,9.14795208 L109.90233,11.6699439 C109.90233,13.8938821 108.856291,16.0719659 105.035974,16.0719659 C101.192917,16.0719659 100.169618,13.9168093 100.169618,11.6699439 Z M106.695992,11.7616527 L106.695992,9.05624328 C106.695992,8.02451936 106.172973,7.45133941 105.013234,7.45133941 C103.853495,7.45133941 103.330475,8.02451936 103.330475,9.05624328 L103.330475,11.7616527 C103.330475,12.7933766 103.853495,13.3665565 105.013234,13.3665565 C106.172973,13.3665565 106.695992,12.7933766 106.695992,11.7616527 Z"
                      id="Shape"></path>
                <path d="M115.132526,16.0719659 C113.950046,16.0719659 112.267288,15.7739124 111.221249,15.4300044 L111.721528,13.0455758 C112.608388,13.3207021 113.768127,13.5270469 114.973346,13.5270469 C115.928425,13.5270469 116.087605,13.2519206 116.087605,12.609959 C116.087605,11.9221431 116.064865,11.8304343 114.336626,11.3948175 C111.721528,10.7528559 111.494129,10.0421128 111.494129,8.00159217 C111.494129,5.70887235 112.380988,4.74593002 115.610065,4.74593002 C116.428704,4.74593002 117.929543,4.86056602 118.884622,5.1127652 L118.589003,7.6118298 C117.633923,7.42841221 116.474184,7.29084902 115.632805,7.29084902 C114.700466,7.29084902 114.473066,7.5430482 114.473066,8.02451936 C114.473066,8.68940811 114.564026,8.7811169 115.837465,9.07917048 C118.907362,9.76698643 119.134762,10.4318752 119.134762,12.609959 C119.134762,14.8568244 118.202423,16.0719659 115.132526,16.0719659 Z"
                      id="Shape"></path>
            </g>
        </g>
    </g>
</svg>